<svg width="1316" height="420" viewBox="0 0 1316 420" fill="none" xmlns="http://www.w3.org/2000/svg">
<g clip-path="url(#clip0_152_57)">
<path fill-rule="evenodd" clip-rule="evenodd" d="M210 420C325.98 420 420 325.98 420 210C420 94.0202 325.98 0 210 0C94.0202 0 0 94.0202 0 210C0 325.98 94.0202 420 210 420ZM210 338C280.692 338 338 280.692 338 210C338 139.308 280.692 82 210 82C139.308 82 82 139.308 82 210C82 280.692 139.308 338 210 338Z" fill="white"/>
<path fill-rule="evenodd" clip-rule="evenodd" d="M765.555 396.013C736.406 411.332 703.215 420 668 420C552.02 420 458 325.98 458 210C458 94.0202 552.02 0 668 0C783.98 0 878 94.0202 878 210C878 255.249 863.689 297.156 839.345 331.441L781.367 269.485C790.712 251.713 796 231.474 796 210C796 139.308 738.692 82 668 82C597.308 82 540 139.308 540 210C540 280.692 597.308 338 668 338C681.203 338 693.939 336.001 705.922 332.289L765.555 396.013Z" fill="white"/>
<rect x="711.131" y="320.763" width="75.308" height="106.14" transform="rotate(-43.1006 711.131 320.763)" fill="white"/>
<path fill-rule="evenodd" clip-rule="evenodd" d="M1000 0H916V220C916 330.457 1005.54 420 1116 420C1226.46 420 1316 330.457 1316 220V0H1232V215C1232 279.065 1180.07 331 1116 331C1051.93 331 1000 279.065 1000 215V0Z" fill="white"/>
</g>
<defs>
<clipPath id="clip0_152_57">
<rect width="1316" height="420" fill="white"/>
</clipPath>
</defs>
</svg>
